<svg width="120" height="72" viewBox="0 0 120 72" fill="none" xmlns="http://www.w3.org/2000/svg">
<rect x="14" y="12" width="36" height="5" rx="2.5" fill="#c7d0c4"/>
<circle cx="40" cy="45" r="18" fill="#eaefe7"/>
<path d="M40 45 V27 A18 18 0 0 1 56.6 51.9 Z" fill="#278053" stroke="white" stroke-width="1.5"/>
<path d="M40 45 L56.6 51.9 A18 18 0 0 1 26.5 56.9 Z" fill="#4783db" stroke="white" stroke-width="1.5"/>
<path d="M40 45 L26.5 56.9 A18 18 0 0 1 40 27 Z" fill="#e5b33d" stroke="white" stroke-width="1.5"/>
<circle cx="72" cy="34" r="3" fill="#278053"/><rect x="78" y="32" width="26" height="4" rx="2" fill="#eaefe7"/>
<circle cx="72" cy="45" r="3" fill="#4783db"/><rect x="78" y="43" width="20" height="4" rx="2" fill="#eaefe7"/>
<circle cx="72" cy="56" r="3" fill="#e5b33d"/><rect x="78" y="54" width="23" height="4" rx="2" fill="#eaefe7"/>
</svg>
