<svg width="120" height="72" viewBox="0 0 120 72" fill="none" xmlns="http://www.w3.org/2000/svg">
<rect x="10.5" y="14.5" width="29" height="43" rx="5" fill="#ffffff" stroke="#c7d0c4"/><rect x="14" y="18" width="22" height="14" rx="3" fill="#dbeee3"/><rect x="14" y="37" width="18" height="3" rx="2" fill="#4d564b"/><rect x="14" y="44" width="22" height="3" rx="2" fill="#c7d0c4"/><rect x="14" y="50" width="12" height="3" rx="2" fill="#c7d0c4"/><rect x="45.5" y="14.5" width="29" height="43" rx="5" fill="#ffffff" stroke="#c7d0c4"/><rect x="49" y="18" width="22" height="14" rx="3" fill="#dbeee3"/><rect x="49" y="37" width="18" height="3" rx="2" fill="#4d564b"/><rect x="49" y="44" width="22" height="3" rx="2" fill="#c7d0c4"/><rect x="49" y="50" width="12" height="3" rx="2" fill="#c7d0c4"/><rect x="80.5" y="14.5" width="29" height="43" rx="5" fill="#ffffff" stroke="#c7d0c4"/><rect x="84" y="18" width="22" height="14" rx="3" fill="#dbeee3"/><rect x="84" y="37" width="18" height="3" rx="2" fill="#4d564b"/><rect x="84" y="44" width="22" height="3" rx="2" fill="#c7d0c4"/><rect x="84" y="50" width="12" height="3" rx="2" fill="#c7d0c4"/>
</svg>
